<?xml version="1.0" standalone="no"?><!DOCTYPE svg PUBLIC "-//W3C//DTD SVG 1.1//EN" "http://www.w3.org/Graphics/SVG/1.1/DTD/svg11.dtd"><svg t="1616027019169" class="icon" viewBox="0 0 1024 1024" version="1.1" xmlns="http://www.w3.org/2000/svg" p-id="1205" xmlns:xlink="http://www.w3.org/1999/xlink" width="300" height="300"><defs><style type="text/css"></style></defs><path d="M741.546667 516.693333a21.333333 21.333333 0 1 0-42.666667 0A186.453333 186.453333 0 0 1 384 650.666667a21.333333 21.333333 0 0 0-29.866667 30.72 227.413333 227.413333 0 0 0 137.813334 62.72v88.32H426.666667a21.333333 21.333333 0 0 0 0 42.666666h170.666666a21.333333 21.333333 0 0 0 0-42.666666h-64v-88.32a228.693333 228.693333 0 0 0 208.213334-227.413334zM396.373333 452.693333a21.333333 21.333333 0 0 0 21.333334-21.333333V285.866667a94.293333 94.293333 0 0 1 146.773333-78.08 21.333333 21.333333 0 0 0 23.893333-37.12 136.96 136.96 0 0 0-213.333333 113.493333v145.92a21.333333 21.333333 0 0 0 21.333333 22.613333z" p-id="1206" fill="#ffffff"></path><path d="M384 560.64a136.533333 136.533333 0 0 0 265.813333-42.666667V294.4l58.026667-58.026667a21.333333 21.333333 0 1 0-30.293333-30.293333l-64 64-296.106667 295.68a21.333333 21.333333 0 1 0 30.293333 30.293333z m223.146667-42.666667a93.866667 93.866667 0 0 1-187.733334 8.106667l187.733334-187.733333z" p-id="1207" fill="#ffffff"></path></svg>