<?xml version="1.0" standalone="no"?><!DOCTYPE svg PUBLIC "-//W3C//DTD SVG 1.1//EN" "http://www.w3.org/Graphics/SVG/1.1/DTD/svg11.dtd"><svg t="1616068097337" class="icon" viewBox="0 0 1024 1024" version="1.1" xmlns="http://www.w3.org/2000/svg" p-id="2112" xmlns:xlink="http://www.w3.org/1999/xlink" width="300" height="300"><defs><style type="text/css"></style></defs><path d="M488.533333 546.133333c-121.6 0-219.733333-98.133333-219.733333-219.733333C268.8 204.8 366.933333 106.666667 488.533333 106.666667c121.6 0 219.733333 98.133333 219.733334 219.733333 0 121.6-98.133333 219.733333-219.733334 219.733333z m0-398.933333c-98.133333 0-177.066667 78.933333-177.066666 177.066667s78.933333 177.066667 177.066666 177.066666c98.133333 0 177.066667-78.933333 177.066667-177.066666s-78.933333-177.066667-177.066667-177.066667zM921.6 844.8h-187.733333c-12.8 0-21.333333-8.533333-21.333334-21.333333s8.533333-21.333333 21.333334-21.333334h187.733333c12.8 0 21.333333 8.533333 21.333333 21.333334s-8.533333 21.333333-21.333333 21.333333z" fill="#5c46e3" p-id="2113"></path><path d="M827.733333 940.8c-12.8 0-21.333333-8.533333-21.333333-21.333333v-189.866667c0-12.8 8.533333-21.333333 21.333333-21.333333s21.333333 8.533333 21.333334 21.333333v189.866667c0 10.666667-8.533333 21.333333-21.333334 21.333333zM102.4 930.133333h-4.266667c-10.666667-2.133333-19.2-12.8-17.066666-23.466666 36.266667-241.066667 206.933333-388.266667 441.6-381.866667 110.933333 2.133333 204.8 44.8 266.666666 115.2 8.533333 8.533333 6.4 21.333333-2.133333 29.866667-8.533333 8.533333-21.333333 6.4-29.866667-2.133334-53.333333-61.866667-136.533333-96-234.666666-100.266666-211.2-6.4-364.8 125.866667-396.8 345.6-4.266667 10.666667-12.8 17.066667-23.466667 17.066666z" fill="#5c46e3" p-id="2114"></path></svg>