<?xml version="1.0" standalone="no"?><!DOCTYPE svg PUBLIC "-//W3C//DTD SVG 1.1//EN" "http://www.w3.org/Graphics/SVG/1.1/DTD/svg11.dtd"><svg t="1616027375521" class="icon" viewBox="0 0 1024 1024" version="1.1" xmlns="http://www.w3.org/2000/svg" p-id="6494" xmlns:xlink="http://www.w3.org/1999/xlink" width="300" height="300"><defs><style type="text/css"></style></defs><path d="M631.637333 178.432a64 64 0 0 1 19.84 13.504l167.616 167.786667a64 64 0 0 1-19.370666 103.744l-59.392 26.304-111.424 111.552-8.832 122.709333a64 64 0 0 1-109.098667 40.64l-108.202667-108.309333-184.384 185.237333-45.354666-45.162667 184.490666-185.344-111.936-112.021333a64 64 0 0 1 40.512-109.056l126.208-9.429333 109.44-109.568 25.706667-59.306667a64 64 0 0 1 84.181333-33.28z m-25.450666 58.730667l-30.549334 70.464-134.826666 135.04-149.973334 11.157333 265.408 265.6 10.538667-146.474667 136.704-136.874666 70.336-31.146667-167.637333-167.765333z" p-id="6495" fill="#ffffff"></path></svg>