<?xml version="1.0" standalone="no"?><!DOCTYPE svg PUBLIC "-//W3C//DTD SVG 1.1//EN" "http://www.w3.org/Graphics/SVG/1.1/DTD/svg11.dtd"><svg t="1616027144658" class="icon" viewBox="0 0 1024 1024" version="1.1" xmlns="http://www.w3.org/2000/svg" p-id="1647" xmlns:xlink="http://www.w3.org/1999/xlink" width="300" height="300"><defs><style type="text/css"></style></defs><path d="M513.6 329.024a173.12 173.12 0 0 0-172.992 172.992c0 95.36 77.568 172.992 172.992 172.992s173.056-77.632 173.056-172.992a173.184 173.184 0 0 0-173.056-172.992z m0 281.984a109.12 109.12 0 0 1-108.992-108.992c0-60.096 48.896-108.992 108.992-108.992s109.056 48.896 109.056 108.992c0 60.096-48.96 108.992-109.056 108.992z" p-id="1648" fill="#ffffff"></path><path d="M513.792 121.216c-194.816 0-370.304 152.896-453.376 376.448l7.616 28.864c83.072 222.848 252.864 356.288 445.76 356.288 193.216 0 367.36-143.232 450.24-366.656l2.816-18.496c-83.328-222.976-258.688-376.448-453.056-376.448z m0 704.256c-167.936 0-320.704-127.168-395.584-326.208 75.968-195.52 227.776-320.896 395.584-320.896 167.68 0 319.616 125.376 395.52 320.896-74.944 199.104-227.584 326.208-395.52 326.208z" p-id="1649" fill="#ffffff"></path></svg>