<?xml version="1.0" standalone="no"?>
<!DOCTYPE svg PUBLIC "-//W3C//DTD SVG 20010904//EN"
 "http://www.w3.org/TR/2001/REC-SVG-20010904/DTD/svg10.dtd">
<svg version="1.0" xmlns="http://www.w3.org/2000/svg"
 width="770.000000pt" height="770.000000pt" viewBox="0 0 770.000000 770.000000"
 preserveAspectRatio="xMidYMid meet">
<metadata>
Created by potrace 1.11, written by Peter Selinger 2001-2013
</metadata>
<g transform="translate(0.000000,770.000000) scale(0.100000,-0.100000)"
fill="#000000" stroke="none">
<path d="M2530 7683 c-14 -9 -28 -22 -32 -27 -4 -6 -8 -74 -8 -151 0 -195 7
-202 197 -200 65 1 103 -2 106 -9 2 -6 3 -888 2 -1961 l-1 -1950 -164 -262
c-91 -145 -172 -274 -180 -288 -8 -13 -64 -104 -125 -201 -60 -97 -135 -218
-167 -268 -130 -210 -205 -331 -245 -394 -23 -37 -48 -77 -55 -89 -7 -13 -31
-51 -52 -85 -227 -361 -693 -1112 -709 -1143 -61 -120 -62 -261 -1 -390 47
-99 143 -182 259 -224 59 -21 4860 -26 4947 -5 197 47 330 212 337 419 3 102
-25 168 -175 410 -75 121 -146 236 -157 255 -12 19 -24 37 -28 40 -3 3 -8 10
-10 15 -2 6 -35 61 -74 123 -38 62 -75 120 -80 130 -14 24 -522 839 -550 882
-19 30 -130 208 -265 428 -20 31 -119 192 -221 357 l-186 300 1 1955 1 1955
121 1 c181 2 187 8 186 192 -1 136 -10 173 -48 191 -18 8 -377 11 -1312 11
-1193 0 -1289 -1 -1312 -17z"/>
</g>
</svg>
