<?xml version="1.0" standalone="no"?><!DOCTYPE svg PUBLIC "-//W3C//DTD SVG 1.1//EN" "http://www.w3.org/Graphics/SVG/1.1/DTD/svg11.dtd"><svg t="1616027063170" class="icon" viewBox="0 0 1024 1024" version="1.1" xmlns="http://www.w3.org/2000/svg" p-id="1465" xmlns:xlink="http://www.w3.org/1999/xlink" width="300" height="300"><defs><style type="text/css"></style></defs><path d="M512 653.653333a136.96 136.96 0 0 0 136.96-136.96V285.866667a136.96 136.96 0 0 0-273.92 0v231.253333a136.96 136.96 0 0 0 136.96 136.533333zM417.706667 285.866667a94.293333 94.293333 0 0 1 188.586666 0v231.253333a94.293333 94.293333 0 0 1-188.586666 0z" p-id="1466" fill="#ffffff"></path><path d="M741.546667 516.693333a21.333333 21.333333 0 0 0-42.666667 0 186.453333 186.453333 0 1 1-373.333333 0 21.333333 21.333333 0 0 0-42.666667 0 228.693333 228.693333 0 0 0 207.786667 226.986667v88.32H426.666667a21.333333 21.333333 0 0 0 0 42.666667h170.666666a21.333333 21.333333 0 1 0 0-42.666667h-64v-87.893333a228.693333 228.693333 0 0 0 208.213334-227.413334z" p-id="1467" fill="#ffffff"></path></svg>