<svg t="1620354322551" class="icon" viewBox="0 0 1024 1024" version="1.1" xmlns="http://www.w3.org/2000/svg" p-id="1977" width="48" height="48"><path d="M230.4 192C191.68 192 160 223.84 160 262.72v424.448l105.6-106.112h105.6v106.112c0 38.88 31.68 70.72 70.4 70.72h316.8L864 864V439.584c0-38.912-31.68-70.72-70.4-70.72h-140.8V262.72C652.8 223.84 621.12 192 582.4 192h-352z m0 70.72h352v247.584h-352V262.752z m422.4 176.864h140.8v247.584h-352v-106.112h140.8c38.72 0 70.4-31.84 70.4-70.72v-70.752z" p-id="1978" fill="#ffffff"></path></svg>