<?xml version="1.0" standalone="no"?><!DOCTYPE svg PUBLIC "-//W3C//DTD SVG 1.1//EN" "http://www.w3.org/Graphics/SVG/1.1/DTD/svg11.dtd"><svg t="1616669095816" class="icon" viewBox="0 0 1024 1024" version="1.1" xmlns="http://www.w3.org/2000/svg" p-id="2073" xmlns:xlink="http://www.w3.org/1999/xlink" width="300" height="300"><defs><style type="text/css"></style></defs><path d="M384 128 469.333333 128 469.333333 213.333333 384 213.333333 384 128M554.666667 128 640 128 640 213.333333 554.666667 213.333333 554.666667 128M384 298.666667 469.333333 298.666667 469.333333 384 384 384 384 298.666667M554.666667 298.666667 640 298.666667 640 384 554.666667 384 554.666667 298.666667M384 469.333333 469.333333 469.333333 469.333333 554.666667 384 554.666667 384 469.333333M554.666667 469.333333 640 469.333333 640 554.666667 554.666667 554.666667 554.666667 469.333333M384 640 469.333333 640 469.333333 725.333333 384 725.333333 384 640M554.666667 640 640 640 640 725.333333 554.666667 725.333333 554.666667 640M384 810.666667 469.333333 810.666667 469.333333 896 384 896 384 810.666667M554.666667 810.666667 640 810.666667 640 896 554.666667 896 554.666667 810.666667Z" p-id="2074" fill="#aaa"></path></svg>
