<?xml version="1.0" standalone="no"?><!DOCTYPE svg PUBLIC "-//W3C//DTD SVG 1.1//EN" "http://www.w3.org/Graphics/SVG/1.1/DTD/svg11.dtd"><svg t="1617363910861" class="icon" viewBox="0 0 1024 1024" version="1.1" xmlns="http://www.w3.org/2000/svg" p-id="2596" xmlns:xlink="http://www.w3.org/1999/xlink" width="48" height="48"><defs><style type="text/css"></style></defs><path d="M582.7 489.8H429.5c-12.1 0-21.9-9.8-21.9-21.9s9.8-21.9 21.9-21.9h153.2c12.1 0 21.9 9.8 21.9 21.9s-9.8 21.9-21.9 21.9z m54.7 109.4H374.8c-12.1 0-21.9-9.8-21.9-21.9s9.8-21.9 21.9-21.9h262.6c12.1 0 21.9 9.8 21.9 21.9s-9.8 21.9-21.9 21.9z" p-id="2597" fill="#ffffff"></path><path d="M511.7 883.9C333.3 883.9 180 757.2 146.4 582s62-349.6 227.7-415.6 355-5 451.1 145.3C921.3 462 897 659.4 767.5 782c-8.8 8.3-22.6 8-31-0.8-8.3-8.8-8-22.6 0.8-31 114.4-108.2 135.8-282.4 51-415.1S536.5 148.7 390.3 207s-230.6 212.1-201 366.7 164.9 266.4 322.3 266.4h281.5l-55.4-48.9c-9.1-8-9.9-21.9-1.9-31s21.9-9.9 31-1.9l98.5 87.5c6.6 6.1 8.8 15.5 5.6 23.9-3.2 8.4-11.2 13.9-20.1 14H511.7z" p-id="2598" fill="#ffffff"></path></svg>