<?xml version="1.0" standalone="no"?><!DOCTYPE svg PUBLIC "-//W3C//DTD SVG 1.1//EN" "http://www.w3.org/Graphics/SVG/1.1/DTD/svg11.dtd">
<svg width="20" height="20" viewBox="0 0 20 20" fill="none" xmlns="http://www.w3.org/2000/svg">
<path d="M13.5835 7.64335C11.2221 6.9202 8.6706 6.96497 6.33599 7.77051L6.37844 10.19C6.38384 10.4979 6.21791 10.7594 5.96728 10.8958C5.15518 11.3226 4.39499 11.886 3.71969 12.5854C3.57641 12.7338 3.38004 12.8192 3.1738 12.8228C2.96755 12.8264 2.76831 12.748 2.61991 12.6047L0.661541 10.7139C0.513143 10.5706 0.42774 10.3742 0.424121 10.168C0.420502 9.96172 0.498964 9.76248 0.642245 9.61408C3.07801 7.09132 6.41618 5.63948 9.92239 5.57797C13.4286 5.51645 16.8156 6.85029 19.3384 9.28605C19.4868 9.42933 19.5722 9.6257 19.5758 9.83195C19.5795 10.0382 19.501 10.2374 19.3577 10.3858L17.4669 12.3442C17.3236 12.4926 17.1272 12.578 16.921 12.5816C16.7147 12.5852 16.5155 12.5068 16.3671 12.3635C15.6677 11.6882 14.8882 11.1518 14.0616 10.7538C13.8064 10.6262 13.6314 10.3708 13.626 10.0629L13.5835 7.64335Z" fill="white"/>
</svg>
