<?xml version="1.0" standalone="no"?><!DOCTYPE svg PUBLIC "-//W3C//DTD SVG 1.1//EN" "http://www.w3.org/Graphics/SVG/1.1/DTD/svg11.dtd"><svg t="1617261237747" class="icon" viewBox="0 0 1024 1024" version="1.1" xmlns="http://www.w3.org/2000/svg" p-id="7588" width="48" height="48" xmlns:xlink="http://www.w3.org/1999/xlink"><defs><style type="text/css"></style></defs><path d="M156.853 648.88h-16.816c-0.736-0.207-1.46-0.526-2.211-0.605-19.122-2.033-34.26-10.914-45.562-26.427-8.119-11.144-13.813-23.541-18.06-36.54-3.8-11.633-6.813-23.525-10.174-35.303V538.57c1.685-5.882 2.827-11.989 5.16-17.602 5.773-13.884 15.904-24.522 27.111-34.18 15.258-13.149 32.348-23.631 49.598-33.88 28.341-16.837 57.427-32.09 88.71-42.876 43.863-15.126 89.194-23.133 135.143-28.124 35.334-3.837 70.795-5.749 106.328-6.364 0.99-0.017 1.975-0.276 2.961-0.422h64.572c1.21 0.158 2.415 0.39 3.63 0.464 29.953 1.841 59.948 3.162 89.85 5.621 36.74 3.022 73.084 9.008 108.96 17.55 50.42 12.005 98.76 28.752 140.824 60.465 16.098 12.136 32.966 23.244 47.116 37.771 9.762 10.023 18.283 20.93 22.915 34.367 1.264 3.664 2.054 7.493 3.062 11.245v11.434c-2.247 8.518-4.386 17.067-6.767 25.547-3.96 14.098-7.752 28.271-14.933 41.205-7.544 13.59-18.826 22.28-34.091 25.443-5.777 1.198-11.68 1.782-17.525 2.645h-12.78c-1.32-0.179-2.636-0.417-3.962-0.527-6.81-0.56-13.654-0.823-20.427-1.67-40.25-5.04-79.28-15.285-117.685-28.065-20.007-6.657-32.68-20.496-37.337-40.945-2.172-9.532-3.213-19.45-3.582-29.236-0.711-18.863-9.015-32.775-25.447-41.673-5.863-3.176-12.145-5.79-18.511-7.78-21.149-6.612-43.062-8.482-65.04-8.72-40.114-0.435-80.235-0.31-120.352-0.329-22.538-0.01-45.041 0.722-67.264 4.955-13.706 2.61-27.02 6.413-38.847 14.187-11.667 7.67-19.07 18.225-20.775 32.225-0.893 7.327-0.843 14.764-1.545 22.12-2.531 26.52-15.224 45.5-40.72 55.293-37.85 14.54-77.097 23.11-117.208 28.14-6.095 0.764-12.212 1.354-18.319 2.025z" p-id="7589" fill="#ffffff"></path></svg>