<?xml version="1.0" standalone="no"?><!DOCTYPE svg PUBLIC "-//W3C//DTD SVG 1.1//EN" "http://www.w3.org/Graphics/SVG/1.1/DTD/svg11.dtd">
<svg width="47" height="47" viewBox="0 0 47 47" fill="none" xmlns="http://www.w3.org/2000/svg">
<path d="M23.5 5.58125C26.9075 5.58125 29.6688 8.3425 29.6688 11.75C29.6688 15.1575 26.9075 17.9188 23.5 17.9188C20.0925 17.9188 17.3312 15.1575 17.3312 11.75C17.3312 8.3425 20.0925 5.58125 23.5 5.58125ZM23.5 32.0187C32.2244 32.0187 41.4188 36.3075 41.4188 38.1875V41.4188H5.58125V38.1875C5.58125 36.3075 14.7756 32.0187 23.5 32.0187ZM23.5 0C17.0081 0 11.75 5.25812 11.75 11.75C11.75 18.2419 17.0081 23.5 23.5 23.5C29.9919 23.5 35.25 18.2419 35.25 11.75C35.25 5.25812 29.9919 0 23.5 0ZM23.5 26.4375C15.6569 26.4375 0 30.3738 0 38.1875V47H47V38.1875C47 30.3738 31.3431 26.4375 23.5 26.4375Z" fill="white"/>
</svg>
