<?xml version="1.0" standalone="no"?><!DOCTYPE svg PUBLIC "-//W3C//DTD SVG 1.1//EN" "http://www.w3.org/Graphics/SVG/1.1/DTD/svg11.dtd"><svg t="1616027138765" class="icon" viewBox="0 0 1024 1024" version="1.1" xmlns="http://www.w3.org/2000/svg" p-id="1454" xmlns:xlink="http://www.w3.org/1999/xlink" width="300" height="300"><defs><style type="text/css"></style></defs><path d="M801.856 257.024l62.592-62.592a32 32 0 0 0-45.248-45.248l-65.92 65.92c-73.728-55.872-157.888-88.96-246.464-88.96-194.816 0-370.304 152.896-453.376 376.448l7.616 28.864c34.944 93.696 85.824 170.368 146.688 229.184l-58.88 58.88a32 32 0 0 0 45.248 45.248l62.336-62.4c74.048 54.72 159.424 85.376 250.432 85.376 193.216 0 367.296-143.232 450.176-366.656l2.816-18.496c-36.736-98.048-91.904-181.504-158.016-245.568zM111.232 504.32c75.968-195.52 227.776-320.896 395.584-320.896 74.304 0 145.024 25.792 207.872 70.272L604.096 364.288a171.52 171.52 0 0 0-97.472-30.272 173.12 173.12 0 0 0-172.992 172.992c0 36.16 11.2 69.696 30.272 97.472l-114.176 114.112C192.32 663.68 144 591.424 111.232 504.32z m504.384 2.688c0 60.096-48.896 108.992-108.992 108.992-18.368 0-35.456-4.992-50.688-13.056L602.56 456.32c8.064 15.232 13.056 32.32 13.056 50.688z m-217.984 0c0-60.096 48.896-108.992 108.992-108.992 18.368 0 35.456 4.992 50.688 13.12l-146.624 146.56a107.904 107.904 0 0 1-13.056-50.688z m109.184 323.52c-74.112 0-144.832-25.984-207.616-70.784l109.952-109.952c27.776 19.008 61.312 30.272 97.472 30.272a173.248 173.248 0 0 0 172.992-172.992c0-36.16-11.264-69.696-30.272-97.472l115.008-114.944c56.896 53.952 104.896 124.672 137.92 209.792-74.88 198.912-227.52 326.08-395.456 326.08z" p-id="1455" fill="#ffffff"></path></svg>